<svg width="30" height="30" viewBox="0 0 30 30" fill="none" xmlns="http://www.w3.org/2000/svg">
<g clip-path="url(#clip0_927_3186)">
<path d="M14.0336 19.4529C15.0193 19.8429 15.9193 20.3614 16.7293 21.0064C17.5393 21.6493 18.2314 22.3993 18.8079 23.2479C19.9835 24.9601 20.6167 26.9866 20.625 29.0636V30H18.75V29.0614C18.754 27.9532 18.5372 26.8552 18.1123 25.8317C17.6873 24.8082 17.0628 23.8795 16.275 23.1C15.5018 22.3377 14.5925 21.7272 13.5943 21.3C12.5569 20.8555 11.4401 20.6259 10.3115 20.625C9.20321 20.621 8.10527 20.8378 7.08173 21.2627C6.05819 21.6877 5.12955 22.3122 4.35003 23.1C3.58801 23.8734 2.9775 24.7827 2.55003 25.7807C2.1086 26.7964 1.88575 27.8914 1.87503 29.0614V30H3.52188e-05V29.0614C-0.00544602 26.983 0.628995 24.9532 1.81718 23.2479C3.00066 21.5404 4.66241 20.2209 6.5936 19.455C6.15488 19.1536 5.75538 18.7987 5.40431 18.3986C5.05741 18.0047 4.75753 17.5718 4.51074 17.1086C4.26492 16.6458 4.07777 16.1541 3.9536 15.645C3.82698 15.1264 3.7587 14.5952 3.75003 14.0614C3.75003 13.155 3.92146 12.3043 4.26432 11.5136C4.93472 9.94697 6.18241 8.69851 7.7486 8.02714C8.5566 7.68318 9.42534 7.50464 10.3035 7.50206C11.1817 7.49948 12.0514 7.67293 12.8614 8.01214C14.4284 8.68306 15.677 9.93157 16.3479 11.4986C16.9027 12.8034 17.0208 14.2526 16.6843 15.63C16.5557 16.1379 16.3672 16.6264 16.1143 17.0957C15.8631 17.5602 15.5635 17.9969 15.2207 18.3986C14.8779 18.7993 14.4814 19.1486 14.0336 19.4529ZM10.3115 18.75C10.9565 18.75 11.5629 18.6279 12.1286 18.3857C13.2502 17.9091 14.143 17.0156 14.6186 15.8936C14.8736 15.3171 15 14.7064 15 14.0636C15.0028 13.45 14.8822 12.842 14.6455 12.2759C14.4088 11.7098 14.0608 11.1969 13.6222 10.7679C13.1883 10.3448 12.6825 10.0023 12.1286 9.75643C11.557 9.50114 10.9374 9.37109 10.3115 9.375C9.66859 9.375 9.06217 9.49714 8.49645 9.73929C7.36864 10.2203 6.47035 11.1186 5.98931 12.2464C5.74717 12.8121 5.62503 13.4186 5.62503 14.0636C5.62503 14.7064 5.74717 15.3129 5.98931 15.8786C6.23574 16.4443 6.56789 16.9436 6.98788 17.3721C7.42268 17.8115 7.94079 18.1597 8.51186 18.3963C9.08292 18.6329 9.69547 18.7531 10.3136 18.75H10.3115ZM30 0V15H26.25L20.625 20.625V15H18.75V13.125H22.5V16.0993L25.4743 13.125H28.125V1.875H9.37502V5.24357C9.06073 5.28328 8.74773 5.33259 8.43645 5.39143C8.11727 5.45203 7.80396 5.54021 7.50003 5.655V0H30Z" fill="#DF4807"/>
</g>
<defs>
<clipPath id="clip0_927_3186">
<rect width="30" height="30" fill="white"/>
</clipPath>
</defs>
</svg>
