<svg width="30" height="30" viewBox="0 0 30 30" fill="none" xmlns="http://www.w3.org/2000/svg">
<path d="M14.9996 29.1667C15.8489 29.1657 16.6821 28.8252 17.4109 28.1813C18.1397 27.5374 18.737 26.6142 19.1393 25.5096C19.1583 25.4566 19.1676 25.3973 19.1665 25.3375C19.1654 25.2776 19.1538 25.2192 19.1328 25.1679C19.1119 25.1166 19.0823 25.0742 19.047 25.0448C19.0117 25.0154 18.9718 24.9999 18.9313 25H11.0692C11.0286 24.9998 10.9886 25.0151 10.9532 25.0445C10.9178 25.0738 10.8882 25.1162 10.8672 25.1675C10.8462 25.2188 10.8345 25.2773 10.8333 25.3373C10.8322 25.3972 10.8415 25.4565 10.8605 25.5096C11.2628 26.6141 11.86 27.5372 12.5887 28.1811C13.3174 28.8249 14.1505 29.1655 14.9996 29.1667Z" fill="#DF4807"/>
<path d="M24.5795 20.1449C24.4932 20.0362 24.4083 19.9275 24.3251 19.8226C23.1802 18.3763 22.4876 17.5034 22.4876 13.4091C22.4876 11.2893 22.002 9.55006 21.045 8.24561C20.3394 7.28194 19.3855 6.55091 18.1282 6.01064C18.112 6.00124 18.0976 5.98891 18.0855 5.97423C17.6333 4.39258 16.3958 3.33325 15.0001 3.33325C13.6044 3.33325 12.3675 4.39258 11.9152 5.9726C11.9032 5.98674 11.8889 5.99868 11.8731 6.00793C8.9391 7.26944 7.51322 9.68975 7.51322 13.4074C7.51322 17.5034 6.82161 18.3763 5.6757 19.821C5.59244 19.9259 5.50762 20.0324 5.42123 20.1433C5.19809 20.4244 5.0567 20.7663 5.01382 21.1287C4.97094 21.4911 5.02834 21.8587 5.17925 22.188C5.50033 22.8946 6.18465 23.3333 6.96576 23.3333H23.0402C23.8177 23.3333 24.4973 22.8952 24.8195 22.1919C24.971 21.8624 25.029 21.4945 24.9864 21.1317C24.9439 20.7689 24.8027 20.4265 24.5795 20.1449Z" fill="#DF4807"/>
</svg>
