<svg width="36" height="36" viewBox="0 0 36 36" fill="none" xmlns="http://www.w3.org/2000/svg">
<circle cx="18" cy="18" r="17.5" fill="white" stroke="#DF4807"/>
<path d="M26.1633 27.376L26.1662 27.378C27.5099 28.3278 28.4173 29.4902 28.8638 30.7247C25.9398 33.3885 22.1464 35 18 35C13.8539 35 10.0607 33.3887 7.1368 30.7252C7.5853 29.4936 8.50235 28.3295 9.83583 27.3766C12.0513 25.8114 15.0106 25 18.0133 25C21.0171 25 23.9668 25.812 26.1633 27.376Z" fill="#DF4807" stroke="#DF4807" stroke-width="2"/>
<path d="M13.375 16.0349C13.375 13.4822 15.4473 11.4099 18 11.4099C20.5519 11.4099 22.6237 13.4809 22.625 16.0324C22.6114 18.5361 20.6594 20.5502 18.1769 20.6449H18.1768H18.1768H18.1767H18.1766H18.1765H18.1764H18.1763H18.1763H18.1762H18.1761H18.176H18.1759H18.1759H18.1758H18.1757H18.1756H18.1755H18.1754H18.1754H18.1753H18.1752H18.1751H18.175H18.1749H18.1749H18.1748H18.1747H18.1746H18.1745H18.1744H18.1744H18.1743H18.1742H18.1741H18.174H18.1739H18.1738H18.1738H18.1737H18.1736H18.1735H18.1734H18.1733H18.1733H18.1732H18.1731H18.173H18.1729H18.1728H18.1727H18.1727H18.1726H18.1725H18.1724H18.1723H18.1722H18.1721H18.1721H18.172H18.1719H18.1718H18.1717H18.1716H18.1715H18.1715H18.1714H18.1713H18.1712H18.1711H18.171H18.1709H18.1709H18.1708H18.1707H18.1706H18.1705H18.1704H18.1703H18.1702H18.1702H18.1701H18.17H18.1699H18.1698H18.1697H18.1696H18.1696H18.1695H18.1694H18.1693H18.1692H18.1691H18.169H18.1689H18.1689H18.1688H18.1687H18.1686H18.1685H18.1684H18.1683H18.1682H18.1682H18.1681H18.168H18.1679H18.1678H18.1677H18.1676H18.1675H18.1675H18.1674H18.1673H18.1672H18.1671H18.167H18.1669H18.1668H18.1668H18.1667H18.1666H18.1665H18.1664H18.1663H18.1662H18.1661H18.1661H18.166H18.1659H18.1658H18.1657H18.1656H18.1655H18.1654H18.1654H18.1653H18.1652H18.1651H18.165H18.1648H18.1646H18.1645H18.1643H18.1641H18.1639H18.1638H18.1636H18.1634H18.1632H18.163H18.1629H18.1627H18.1625H18.1623H18.1621H18.162H18.1618H18.1616H18.1614H18.1612H18.1611H18.1609H18.1607H18.1605H18.1603H18.1601H18.1599H18.1598H18.1596H18.1594H18.1592H18.159H18.1588H18.1586H18.1585H18.1583H18.1581H18.1579H18.1577H18.1575H18.1573H18.1571H18.157H18.1568H18.1566H18.1564H18.1562H18.156H18.1558H18.1556H18.1554H18.1552H18.155H18.1548H18.1547H18.1545H18.1543H18.1541H18.1539H18.1537H18.1535H18.1533H18.1531H18.1529H18.1527H18.1525H18.1523H18.1521H18.1519H18.1517H18.1515H18.1513H18.1511H18.1509H18.1507H18.1505H18.1504H18.1502H18.15H18.1498H18.1496H18.1494H18.1492H18.149H18.1488H18.1486H18.1484H18.1482H18.148H18.1478H18.1475H18.1473H18.1471H18.1469H18.1467H18.1465H18.1463H18.1461H18.1459H18.1457H18.1455H18.1453H18.1451H18.1449H18.1447H18.1445H18.1443H18.1441H18.1439H18.1437H18.1435H18.1433H18.1431H18.1429H18.1426H18.1424H18.1422H18.142H18.1418H18.1416H18.1414H18.1412H18.141H18.1408H18.1406H18.1404H18.1402H18.1399H18.1397H18.1395H18.1393H18.1391H18.1389H18.1387H18.1385H18.1383H18.1381H18.1378H18.1376H18.1374H18.1372H18.137H18.1368H18.1366H18.1364H18.1362H18.1359H18.1357H18.1355H18.1353H18.1351H18.1349H18.1347H18.1345H18.1342H18.134H18.1338H18.1336H18.1334H18.1332H18.133H18.1328H18.1325H18.1323H18.1321H18.1319H18.1317H18.1315H18.1313H18.131H18.1308H18.1306H18.1304H18.1302H18.13H18.1297H18.1295H18.1293H18.1291H18.1289H18.1287H18.1285H18.1282H18.128H18.1278H18.1276H18.1274H18.1272H18.1269H18.1267H18.1265H18.1263H18.1261H18.1259H18.1256H18.1254H18.1252H18.125H18.1248H18.1245H18.1243H18.1241H18.1239H18.1237H18.1235H18.1232H18.123H18.1228H18.1226H18.1224H18.1221H18.1219H18.1217H18.1215H18.1213H18.1211H18.1208H18.1206H18.1204H18.1202H18.12H18.1197H18.1195H18.1193H18.1191H18.1189H18.1186H18.1184H18.1182H18.118H18.1178H18.1176H18.1173H18.1171H18.1169H18.1167H18.1165H18.1162H18.116H18.1158H18.1156H18.1154H18.1151H18.1149H18.1147H18.1145H18.1143H18.114H18.1138H18.1136H18.1134H18.1132H18.1129H18.1127H18.1125H18.1123H18.1121H18.1118H18.1116H18.1114H18.1112H18.111H18.1107H18.1105H18.1103H18.1101H18.1099H18.1096H18.1094H18.1092H18.109H18.1088H18.1085H18.1083H18.1081H18.1079H18.1077H18.1074H18.1072H18.107H18.1068H18.1066H18.1064H18.1061H18.1059H18.1057H18.1055H18.1053H18.105H18.1048H18.1046H18.1044H18.1042H18.1039H18.1037H18.1035H18.1033H18.1031H18.1029H18.1026H18.1024H18.1022H18.102H18.1018H18.1015H18.1013H18.1011H18.1009H18.1007H18.1005H18.1002H18.1H18.0998H18.0996H18.0994H18.0991H18.0989H18.0987H18.0985H18.0983H18.0981H18.0978H18.0976H18.0974H18.0972H18.097H18.0968H18.0965H18.0963H18.0961H18.0959H18.0957H18.0955H18.0953H18.095H18.0948H18.0946H18.0944H18.0942H18.094H18.0937H18.0935H18.0933H18.0931H18.0929H18.0927H18.0925H18.0922H18.092H18.0918H18.0916H18.0914H18.0912H18.091H18.0908H18.0905H18.0903H18.0901H18.0899H18.0897H18.0895H18.0893H18.0891H18.0888H18.0886H18.0884H18.0882H18.088H18.0878H18.0876H18.0874H18.0872H18.0869H18.0867H18.0865H18.0863H18.0861H18.0859H18.0857H18.0855H18.0853H18.0851H18.0848H18.0846H18.0844H18.0842H18.084H18.0838H18.0836H18.0834H18.0832H18.083H18.0828H18.0826H18.0824H18.0821H18.0819H18.0817H18.0815H18.0813H18.0811H18.0809H18.0807H18.0805H18.0803H18.0801H18.0799H18.0797H18.0795H18.0793H18.0791H18.0789H18.0787H18.0785H18.0783H18.0781H18.0779H18.0777H18.0775H18.0772H18.077H18.0768H18.0766H18.0764H18.0762H18.076H18.0758H18.0756H18.0754H18.0752H18.075H18.0748H18.0746H18.0745H18.0743H18.0741H18.0739H18.0737H18.0735H18.0733H18.0731H18.0729H18.0727H18.0725H18.0723H18.0721H18.0719H18.0717H18.0715H18.0713H18.0711H18.0709H18.0707H18.0705H18.0703H18.0701H18.07H18.0698H18.0696H18.0694H18.0692H18.069H18.0688H18.0686H18.0684H18.0682H18.068H18.0679H18.0677H18.0675H18.0673H18.0671H18.0669H18.0667H18.0665H18.0664H18.0662H18.066H18.0658H18.0656H18.0654H18.0652H18.0651H18.0649H18.0647H18.0645H18.0643H18.0641H18.0639H18.0638H18.0636H18.0634H18.0632H18.063H18.0629H18.0627H18.0625H18.0623H18.0621H18.062H18.0618H18.0616H18.0614H18.0612H18.0611H18.0609H18.0607H18.0605H18.0604H18.0602H18.06H18.0598H18.0596H18.0595H18.0593H18.0591H18.0589H18.0588H18.0586H18.0584H18.0582H18.058H18.0578H18.0577H18.0575H18.0573H18.0571H18.0569H18.0567H18.0565H18.0563H18.0562H18.056H18.0558H18.0556H18.0554H18.0552H18.055H18.0548H18.0546H18.0544H18.0542H18.054H18.0538H18.0536H18.0534H18.0532H18.053H18.0528H18.0526H18.0524H18.0522H18.052H18.0518H18.0516H18.0514H18.0512H18.051H18.0508H18.0506H18.0504H18.0502H18.05H18.0498H18.0496H18.0493H18.0491H18.0489H18.0487H18.0485H18.0483H18.0481H18.0479H18.0476H18.0474H18.0472H18.047H18.0468H18.0466H18.0463H18.0461H18.0459H18.0457H18.0455H18.0452H18.045H18.0448H18.0446H18.0444H18.0441H18.0439H18.0437H18.0435H18.0432H18.043H18.0428H18.0426H18.0423H18.0421H18.0419H18.0416H18.0414H18.0412H18.041H18.0407H18.0405H18.0403H18.04H18.0398H18.0396H18.0393H18.0391H18.0389H18.0386H18.0384H18.0381H18.0379H18.0377H18.0374H18.0372H18.037H18.0367H18.0365H18.0362H18.036H18.0358H18.0355H18.0353H18.035H18.0348H18.0345H18.0343H18.0341H18.0338H18.0336H18.0333H18.0331H18.0328H18.0326H18.0323H18.0321H18.0318H18.0316H18.0313H18.0311H18.0308H18.0306H18.0303H18.0301H18.0298H18.0296H18.0293H18.0291H18.0288H18.0286H18.0283H18.0281H18.0278H18.0276H18.0273H18.027H18.0268H18.0265H18.0263H18.026H18.0258H18.0255H18.0252H18.025H18.0247H18.0245H18.0242H18.0239H18.0237H18.0234H18.0232H18.0229H18.0226H18.0224H18.0221H18.0218H18.0216H18.0213H18.0211H18.0208H18.0205H18.0203H18.02H18.0197H18.0195H18.0192H18.0189H18.0187H18.0184H18.0181H18.0179H18.0176H18.0173H18.017H18.0168H18.0165H18.0162H18.016H18.0157H18.0154H18.0152H18.0149H18.0146H18.0143H18.0141H18.0138H18.0135H18.0132H18.013H18.0127H18.0124H18.0122H18.0119H18.0116H18.0113H18.0111H18.0108H18.0105H18.0102H18.0099H18.0097H18.0094H18.0091H18.0088H18.0086H18.0083H18.008H18.0077H18.0074H18.0072H18.0069H18.0066H18.0063H18.006H18.0058H18.0055H18.0052H18.0049H18.0046H18.0044H18.0041H18.0038H18.0035H18.0032H18.003H18.0027H18.0024H18.0021H18.0018H18.0015H18.0013H18.001H18.0007H18.0004H18.0001H17.9998H17.9996H17.9993H17.999H17.9987H17.9984H17.9981H17.9978H17.9976H17.9973H17.997H17.9967H17.9964H17.9961H17.9958H17.9955H17.9953H17.995H17.9947H17.9944H17.9941H17.9938H17.9935H17.9932H17.993H17.9927H17.9924H17.9921H17.9918H17.9915H17.9912H17.9909H17.9906H17.9904H17.9901H17.9898H17.9895H17.9892H17.9889H17.9886H17.9883H17.988H17.9877H17.9875H17.9872H17.9869H17.9866H17.9863H17.986H17.9857H17.9854H17.9851H17.9848H17.9845H17.9843H17.984H17.9837H17.9834H17.9831H17.9828H17.9825H17.9822H17.9819H17.9816H17.9813H17.981H17.9807H17.9805H17.9802H17.9799H17.9796H17.9793H17.979H17.9787H17.9784H17.9781H17.9778H17.9775H17.9772H17.9769H17.9767H17.9764H17.9761H17.9758H17.9755H17.9752H17.9749H17.9746H17.9743H17.974H17.9737H17.9734H17.9731H17.9728H17.9726H17.9723H17.972H17.9717H17.9714H17.9711H17.9708H17.9705H17.9702H17.9699H17.9696H17.9693H17.969H17.9687H17.9685H17.9682H17.9679H17.9676H17.9673H17.967H17.9667H17.9664H17.9661H17.9658H17.9655H17.9652H17.9649H17.9647H17.9644H17.9641H17.9638H17.9635H17.9632H17.9629H17.9626H17.9623H17.962H17.9617H17.9614H17.9612H17.9609H17.9606H17.9603H17.96H17.9597H17.9594H17.9591H17.9588H17.9585H17.9582H17.958H17.9577H17.9574H17.9571H17.9568H17.9565H17.9562H17.9559H17.9556H17.9553H17.9551H17.9548H17.9545H17.9542H17.9539H17.9536H17.9533H17.953H17.9527H17.9525H17.9522H17.9519H17.9516H17.9513H17.951H17.9507H17.9504H17.9502H17.9499H17.9496H17.9493H17.949H17.9487H17.9484H17.9482H17.9479H17.9476H17.9473H17.947H17.9467H17.9465H17.9462H17.9459H17.9456H17.9453H17.945H17.9447H17.9445H17.9442H17.9439H17.9436H17.9433H17.9431H17.9428H17.9425H17.9422H17.9419H17.9416H17.9414H17.9411H17.9408H17.9405H17.9402H17.94H17.9398C15.3137 20.5634 13.375 18.5253 13.375 16.0349Z" fill="#DF4807" stroke="#DF4807" stroke-width="2"/>
</svg>
