<svg width="30" height="30" viewBox="0 0 30 30" fill="none" xmlns="http://www.w3.org/2000/svg">
<g clip-path="url(#clip0_927_3140)">
<path fill-rule="evenodd" clip-rule="evenodd" d="M27.5203 21.134L26.5283 22.866C26.2543 23.345 25.6483 23.508 25.1733 23.232L22.4183 21.628C21.0203 23.219 19.1293 24.359 16.9833 24.799V27C16.9833 27.553 16.5403 28 15.9923 28H14.0083C13.4603 28 13.0173 27.553 13.0173 27V24.799C10.8713 24.359 8.98028 23.219 7.58228 21.628L4.82728 23.232C4.35228 23.508 3.74627 23.345 3.47227 22.866L2.48028 21.134C2.20628 20.656 2.36928 20.044 2.84328 19.769L5.60928 18.157C5.28028 17.163 5.08327 16.106 5.08327 15C5.08327 13.894 5.28028 12.838 5.60928 11.843L2.84328 10.232C2.36928 9.95599 2.20628 9.345 2.48028 8.866L3.47227 7.134C3.74627 6.656 4.35228 6.49201 4.82728 6.76801L7.58228 8.37201C8.98028 6.78101 10.8713 5.64099 13.0173 5.20099V3C13.0173 2.447 13.4603 2 14.0083 2H15.9923C16.5403 2 16.9833 2.447 16.9833 3V5.20099C19.1293 5.64099 21.0203 6.78101 22.4183 8.37201L25.1733 6.76801C25.6483 6.49201 26.2543 6.656 26.5283 7.134L27.5203 8.866C27.7943 9.345 27.6313 9.95599 27.1573 10.232L24.3913 11.843C24.7203 12.838 24.9173 13.894 24.9173 15C24.9173 16.106 24.7203 17.163 24.3913 18.157L27.1573 19.769C27.6313 20.044 27.7943 20.656 27.5203 21.134ZM29.0083 18.536L26.6853 17.184C26.8153 16.474 26.9013 15.749 26.9013 15C26.9013 14.252 26.8153 13.526 26.6853 12.816L29.0083 11.464C29.9573 10.912 30.2813 9.68799 29.7333 8.73199L27.7503 5.26801C27.2033 4.31201 25.9893 3.98301 25.0413 4.53601L22.6943 5.901C21.5983 4.961 20.3523 4.19199 18.9673 3.69699V2C18.9673 0.896 18.0793 0 16.9833 0H13.0173C11.9213 0 11.0333 0.896 11.0333 2V3.69699C9.64827 4.19199 8.40227 4.961 7.30627 5.901L4.95927 4.53601C4.01127 3.98301 2.79727 4.31201 2.25027 5.26801L0.267273 8.73199C-0.280727 9.68799 0.0442714 10.912 0.992271 11.464L3.31528 12.816C3.18528 13.526 3.09927 14.252 3.09927 15C3.09927 15.749 3.18528 16.474 3.31528 17.184L0.992271 18.536C0.0442714 19.088 -0.280727 20.312 0.267273 21.268L2.25027 24.732C2.79727 25.688 4.01127 26.017 4.95927 25.464L7.30627 24.099C8.40227 25.039 9.64827 25.809 11.0333 26.303V28C11.0333 29.104 11.9213 30 13.0173 30H16.9833C18.0793 30 18.9673 29.104 18.9673 28V26.303C20.3523 25.809 21.5983 25.039 22.6943 24.099L25.0413 25.464C25.9893 26.017 27.2033 25.688 27.7503 24.732L29.7333 21.268C30.2813 20.312 29.9573 19.088 29.0083 18.536ZM15.0003 18C13.3573 18 12.0253 16.657 12.0253 15C12.0253 13.344 13.3573 12 15.0003 12C16.6433 12 17.9753 13.344 17.9753 15C17.9753 16.657 16.6433 18 15.0003 18ZM15.0003 10C12.2613 10 10.0423 12.238 10.0423 15C10.0423 17.762 12.2613 20 15.0003 20C17.7393 20 19.9593 17.762 19.9593 15C19.9593 12.238 17.7393 10 15.0003 10Z" fill="#DF4807"/>
</g>
<defs>
<clipPath id="clip0_927_3140">
<rect width="30" height="30" fill="white"/>
</clipPath>
</defs>
</svg>
