<svg width="30" height="30" viewBox="0 0 30 30" fill="none" xmlns="http://www.w3.org/2000/svg">
<path d="M16.9502 11.49C16.9502 11.19 16.6802 10.92 16.3802 10.92H13.0202C12.7202 10.92 12.4502 11.19 12.4502 11.49V21.6C12.4502 21.9 12.7202 22.17 13.0202 22.17H16.3802C16.6802 22.17 16.9502 21.9 16.9502 21.6V11.49ZM10.2002 11.49C10.2002 11.19 9.93019 10.92 9.63019 10.92H6.2702C5.9702 10.92 5.7002 11.19 5.7002 11.49V23.1C5.7002 23.4 5.9702 23.67 6.2702 23.67H9.63019C9.93019 23.67 10.2002 23.4 10.2002 23.1V11.49ZM23.7002 11.49C23.7002 11.19 23.4302 10.92 23.1302 10.92H19.7702C19.4702 10.92 19.2002 11.19 19.2002 11.49V20.1C19.2002 20.4 19.4702 20.67 19.7702 20.67H23.1302C23.4302 20.67 23.7002 20.4 23.7002 20.1V11.49ZM23.7002 6.24004C23.7002 5.94004 23.4302 5.67004 23.1302 5.67004H6.2702C5.9702 5.67004 5.7002 5.94004 5.7002 6.24004V8.10004C5.7002 8.40004 5.9702 8.67004 6.2702 8.67004H23.1302C23.4302 8.67004 23.7002 8.40004 23.7002 8.10004V6.24004Z" fill="#DF4807"/>
</svg>
