<svg width="61" height="60" viewBox="0 0 61 60" fill="none" xmlns="http://www.w3.org/2000/svg">
<path fill-rule="evenodd" clip-rule="evenodd" d="M30.5 5C16.6929 5 5.5 16.1929 5.5 30C5.5 43.8071 16.6929 55 30.5 55C44.3071 55 55.5 43.8071 55.5 30C55.5 16.1929 44.3071 5 30.5 5ZM30.5 50C19.472 50 10.5 41.028 10.5 30C10.5 18.972 19.472 10 30.5 10C41.528 10 50.5 18.972 50.5 30C50.5 41.028 41.528 50 30.5 50ZM39.9144 21.0681L43.4495 24.6033L28 40.1175L18.7324 30.8499L22.2676 27.3148L28 33.0472L39.9144 21.0681Z" fill="#A6D999"/>
</svg>
