<svg width="30" height="30" viewBox="0 0 30 30" fill="none" xmlns="http://www.w3.org/2000/svg">
<g clip-path="url(#clip0_927_2965)">
<path d="M14.7627 6.46699C14.7243 5.75133 13.9929 5.87308 13.2793 5.87308C13.8065 6.01348 14.3052 6.20882 14.7627 6.46699Z" fill="#8A8787"/>
<path d="M7.13373 4.67346C4.3633 4.67346 3.08811 8.1801 5.30281 9.94376C6.05779 7.92781 7.56075 6.4803 9.53106 5.90895C8.99208 5.16383 8.12128 4.67346 7.13373 4.67346Z" fill="#8A8787"/>
<path d="M1.41044 9.39494C1.52335 9.75723 1.66963 10.1048 1.84341 10.4341L0.933355 11.3446C0.688962 11.589 0.688962 11.9857 0.933355 12.2306L2.53746 13.8352C2.65428 13.952 2.81434 14.0178 2.98117 14.0178C3.14616 14.0178 3.30515 13.952 3.42399 13.8352L4.33304 12.9247C4.46946 12.9968 4.62067 13.0411 4.76196 13.1034C4.76196 13.093 4.76094 13.0823 4.76094 13.0719C4.76094 12.3278 4.84641 11.6258 4.99857 10.9667C3.90102 10.2603 3.16867 9.03417 3.16867 7.63425C3.16867 5.44749 4.94749 3.66816 7.13375 3.66816C8.61414 3.66816 9.8923 4.4923 10.5746 5.69637C11.303 5.60604 11.9873 5.60604 12.8109 5.76168C12.705 5.44117 12.5803 5.1275 12.4242 4.83348L13.3342 3.92248C13.4529 3.80515 13.5187 3.64559 13.5187 3.47971C13.5187 3.31377 13.4529 3.15428 13.3342 3.03695L11.731 1.43335C11.6084 1.31065 11.4483 1.24978 11.2883 1.24978C11.1282 1.24978 10.9682 1.31065 10.8465 1.43335L9.93351 2.34436C9.60371 2.16963 9.25717 2.02335 8.89399 1.91291V0.625836C8.89399 0.280299 8.61515 0 8.2686 0H5.99991C5.65532 0 5.37351 0.280299 5.37351 0.625836V1.91285C5.01128 2.02328 4.66467 2.16957 4.33386 2.34429L3.42399 1.4343C3.30123 1.3116 3.14123 1.25072 2.98117 1.25072C2.82117 1.25072 2.66022 1.3116 2.53847 1.4338L0.933355 3.03739C0.816532 3.15523 0.750787 3.31421 0.750787 3.48066C0.750787 3.64705 0.816532 3.8061 0.933355 3.92342L1.84341 4.83392C1.66957 5.16378 1.52335 5.51084 1.41247 5.87306H0.126405C-0.220144 5.87306 -0.5 6.1538 -0.5 6.49985V8.7686C-0.5 9.11363 -0.220144 9.39494 0.126405 9.39494H1.41044Z" fill="#8A8787"/>
<path d="M21.0632 21.5347C22.0666 20.9844 22.7557 19.9311 22.7557 18.7087C22.7557 16.925 21.3038 15.4741 19.5201 15.4741C18.8928 15.4741 18.3115 15.6616 17.8148 15.9718C17.5174 17.1557 17.0491 18.2882 16.4365 19.2718C18.1731 19.5983 19.7664 20.389 21.0632 21.5347Z" fill="#8A8787"/>
<path d="M27.7583 17.4847C27.7583 17.1112 27.4549 16.8087 27.0828 16.8087H25.6948C25.5749 16.4175 25.4159 16.0425 25.2274 15.6867L26.21 14.704C26.3377 14.5774 26.4083 14.4056 26.4083 14.2264C26.4083 14.0472 26.3377 13.8754 26.21 13.7483L24.4803 12.0181C24.3488 11.8859 24.175 11.8197 24.0023 11.8197C23.8295 11.8197 23.6567 11.8859 23.5252 12.0181L22.5405 13.0012C22.1851 12.8127 21.8111 12.6547 21.4184 12.5354V11.1473C21.4184 10.7742 21.117 10.4718 20.744 10.4718H18.2966C18.1326 10.4718 17.9883 10.5375 17.8706 10.6348C18.0767 11.3867 18.1896 12.2021 18.1896 13.0719C18.1896 13.6241 18.1465 14.1847 18.0659 14.7422C18.5214 14.5743 19.0063 14.4689 19.5198 14.4689C21.8582 14.4689 23.7607 16.371 23.7607 18.7088C23.7607 20.203 22.9803 21.5126 21.8091 22.268C22.6613 23.2026 23.3386 24.3114 23.7794 25.5537C23.852 25.5787 23.9276 25.5969 24.0032 25.5969C24.176 25.5969 24.3488 25.5312 24.4813 25.3991L26.2121 23.6688C26.3388 23.5421 26.4085 23.3704 26.4085 23.1912C26.4085 23.012 26.3388 22.8403 26.2121 22.7131L25.2275 21.73C25.416 21.3746 25.575 20.9995 25.6948 20.6079H27.0829C27.2615 20.6079 27.4353 20.5372 27.561 20.4095C27.6876 20.2833 27.7593 20.1111 27.7593 19.9319L27.7583 17.4847Z" fill="#8A8787"/>
<path d="M22.4013 26.1653C21.3518 23.0774 18.5786 20.9535 15.3772 20.6644C14.3052 21.7997 12.9779 22.5199 11.4749 22.5199C9.97291 22.5199 8.64462 21.7997 7.57362 20.6644C4.37035 20.9535 1.59701 23.0774 0.5475 26.1658L-0.0326308 27.8735C-0.198572 28.3649 -0.11911 28.9063 0.183314 29.3279C0.485675 29.7496 0.972626 29.9999 1.49093 29.9999H21.4578C21.9771 29.9999 22.4641 29.7496 22.7665 29.3279C23.0679 28.9063 23.1484 28.3649 22.9815 27.8735L22.4013 26.1653Z" fill="#8A8787"/>
<path d="M6.26904 13.0719C6.26904 16.9021 8.60063 21.012 11.475 21.012C14.3505 21.012 16.6819 16.9021 16.6819 13.0719C16.682 5.13235 6.26904 5.11661 6.26904 13.0719Z" fill="#8A8787"/>
</g>
<defs>
<clipPath id="clip0_927_2965">
<rect width="30" height="30" fill="white"/>
</clipPath>
</defs>
</svg>
